# Blender v2.79 (sub 0) OBJ File: ''
# www.blender.org
mtllib modeloprueba.mtl
o Plane
v -2.000000 -0.039328 2.018920
v 2.000000 0.075241 2.000000
v -2.000000 0.000000 -2.000000
v 2.000000 0.075241 -2.000000
v -2.000000 0.000000 -1.636364
v -2.000000 0.000000 -1.272727
v -2.000000 0.000000 -0.909091
v -2.000000 -0.067112 -0.545455
v -2.000000 0.000000 -0.181818
v -2.000000 0.000000 0.181818
v -2.000000 0.000000 0.545455
v -2.000000 0.000000 0.909091
v -2.000000 0.000000 1.272727
v -2.000000 0.000000 1.636364
v -1.636364 0.000000 2.000000
v -1.272727 0.000000 2.000000
v -0.909091 0.000000 2.000000
v -0.545455 0.000000 2.000000
v -0.181818 0.000000 2.000000
v 0.181818 0.000000 2.000000
v 0.545455 0.000000 2.000000
v 0.909091 0.000000 2.000000
v 1.272727 0.000000 2.000000
v 1.636364 0.000000 2.000000
v 2.000000 0.000000 1.636364
v 2.000000 0.000000 1.272727
v 2.000000 0.000000 0.909091
v 2.000000 0.000000 0.545455
v 2.000000 0.000000 0.181818
v 2.000000 0.000000 -0.181818
v 2.000000 0.000000 -0.545455
v 2.000000 0.000000 -0.909091
v 2.000000 0.000000 -1.272727
v 2.000000 0.000000 -1.636364
v 1.636364 0.000000 -2.000000
v 1.272727 0.000000 -2.000000
v 0.909091 0.000000 -2.000000
v 0.545455 0.000000 -2.000000
v 0.181818 0.000000 -2.000000
v -0.181818 -0.067112 -2.000000
v -0.545455 0.000000 -2.000000
v -0.909091 0.000000 -2.000000
v -1.272727 0.000000 -2.000000
v -1.636364 -0.067112 -2.000000
v -1.636364 0.000000 1.636364
v -1.636364 0.341813 1.272727
v -1.636364 0.000000 0.909091
v -1.636364 -0.159964 0.545455
v -1.636364 -0.159964 0.181818
v -1.636364 0.000000 -0.181818
v -1.636364 0.000000 -0.545455
v -1.636364 0.000000 -0.909091
v -1.636364 0.000000 -1.272727
v -1.636364 0.000000 -1.636364
v -1.272727 0.341813 1.636364
v -1.272727 0.341813 1.272727
v -1.272727 0.000000 0.909091
v -1.272727 0.000000 0.545455
v -1.272727 0.000000 0.181818
v -1.272727 0.000000 -0.181818
v -1.272727 0.000000 -0.545455
v -1.272727 0.341813 -0.909091
v -1.272727 0.246908 -1.272727
v -1.272727 0.000000 -1.636364
v -0.909091 0.281654 1.636364
v -0.909091 0.302315 1.272727
v -0.909091 0.000000 0.909091
v -0.909091 0.341813 0.545455
v -0.909091 0.341813 0.181818
v -0.909091 0.000000 -0.181818
v -0.909091 0.000000 -0.545455
v -0.909091 0.282117 -0.909091
v -0.909091 0.341813 -1.272727
v -0.909091 0.000000 -1.636364
v -0.545455 0.000000 1.636364
v -0.545455 0.000000 1.272727
v -0.545455 0.000000 0.909091
v -0.545455 0.000000 0.545455
v -0.545455 0.341813 0.181818
v -0.545455 0.000000 -0.181818
v -0.545455 0.000000 -0.545455
v -0.545455 0.341813 -0.909091
v -0.545455 0.427331 -1.272727
v -0.545455 0.000000 -1.636364
v -0.181818 0.000000 1.636364
v -0.181818 0.000000 1.272727
v -0.181818 -0.159964 0.909091
v -0.181818 0.000000 0.545455
v -0.181818 0.000000 0.181818
v -0.181818 0.000000 -0.181818
v -0.181818 0.000000 -0.545455
v -0.181818 -0.159964 -0.909091
v -0.181818 0.000000 -1.272727
v -0.181818 0.000000 -1.636364
v 0.181818 0.341813 1.636364
v 0.181818 -0.159964 1.272727
v 0.181818 -0.159964 0.909091
v 0.181818 0.000000 0.545455
v 0.181818 0.341813 0.181818
v 0.181818 0.341813 -0.181818
v 0.181818 0.000000 -0.545455
v 0.181818 -0.159964 -0.909091
v 0.181818 -0.159964 -1.272727
v 0.181818 0.000000 -1.636364
v 0.545455 0.212976 1.636364
v 0.545455 0.341813 1.272727
v 0.545455 0.341813 0.909091
v 0.545455 0.000000 0.545455
v 0.545455 0.341813 0.181818
v 0.545455 0.341813 -0.181818
v 0.545455 0.000000 -0.545455
v 0.545455 0.000000 -0.909091
v 0.545455 0.000000 -1.272727
v 0.545455 0.000000 -1.636364
v 0.909091 0.000000 1.636364
v 0.909091 0.000000 1.272727
v 0.909091 0.000000 0.909091
v 0.909091 0.000000 0.545455
v 0.909091 0.000000 0.181818
v 0.909091 0.341813 -0.181818
v 0.909091 0.341813 -0.545455
v 0.909091 0.000000 -0.909091
v 0.909091 0.386510 -1.272727
v 0.909091 0.263620 -1.636364
v 1.272727 0.000000 1.636364
v 1.272727 0.423048 1.272727
v 1.272727 0.341813 0.909091
v 1.272727 0.341813 0.545455
v 1.272727 0.000000 0.181818
v 1.272727 0.000000 -0.181818
v 1.272727 0.000000 -0.545455
v 1.272727 0.341813 -0.909091
v 1.272727 0.341813 -1.272727
v 1.272727 0.341813 -1.636364
v 1.636364 0.000000 1.636364
v 1.636364 0.341813 1.272727
v 1.636364 0.255271 0.909091
v 1.636364 0.000000 0.545455
v 1.636364 -0.159964 0.181818
v 1.636364 -0.159964 -0.181818
v 1.636364 0.000000 -0.545455
v 1.636364 0.000000 -0.909091
v 1.636364 0.000000 -1.272727
v 1.636364 0.000000 -1.636364
vt 0.886731 0.900743
vt 0.974376 0.907690
vt 0.968642 0.997565
vt 0.879079 0.988130
vt 0.007666 0.910711
vt 0.094774 0.911034
vt 0.094069 0.999900
vt 0.006527 0.996922
vt 0.182359 0.911597
vt 0.182014 0.998548
vt 0.267463 0.913513
vt 0.268963 0.998657
vt 0.351922 0.909000
vt 0.355527 0.995735
vt 0.441036 0.902403
vt 0.446181 0.992897
vt 0.530443 0.896787
vt 0.535499 0.984813
vt 0.619380 0.892358
vt 0.622444 0.980186
vt 0.717274 0.882199
vt 0.707937 0.977720
vt 0.787457 0.877704
vt 0.792502 0.981057
vt 0.005258 0.000100
vt 0.096931 0.004354
vt 0.093875 0.091323
vt 0.006819 0.096450
vt 0.124337 0.185133
vt 0.016570 0.189290
vt 0.101213 0.290177
vt 0.010054 0.282504
vt 0.094788 0.382067
vt 0.003703 0.372029
vt 0.093835 0.459874
vt 0.000103 0.462780
vt 0.092182 0.553375
vt 0.001133 0.553446
vt 0.092273 0.644041
vt 0.000100 0.645609
vt 0.093626 0.734566
vt 0.004684 0.737059
vt 0.095032 0.822845
vt 0.007066 0.824416
vt 0.189595 0.012102
vt 0.191528 0.122883
vt 0.189693 0.191346
vt 0.187601 0.296258
vt 0.185878 0.380987
vt 0.181696 0.466237
vt 0.181513 0.553844
vt 0.182153 0.641764
vt 0.198884 0.745106
vt 0.191798 0.815223
vt 0.279056 0.020816
vt 0.263247 0.120691
vt 0.259562 0.192172
vt 0.274560 0.293352
vt 0.281088 0.396477
vt 0.281010 0.454787
vt 0.268915 0.554583
vt 0.267928 0.640107
vt 0.266429 0.737150
vt 0.266311 0.808997
vt 0.367263 0.024234
vt 0.364203 0.115008
vt 0.361159 0.201767
vt 0.363314 0.286935
vt 0.368205 0.367112
vt 0.339679 0.454794
vt 0.355580 0.552321
vt 0.354222 0.642171
vt 0.332443 0.745838
vt 0.330024 0.803605
vt 0.457739 0.025609
vt 0.455723 0.117247
vt 0.441623 0.203557
vt 0.450258 0.284334
vt 0.447917 0.370615
vt 0.444291 0.459837
vt 0.442945 0.549537
vt 0.443780 0.637658
vt 0.447811 0.725018
vt 0.435663 0.813235
vt 0.546478 0.023983
vt 0.560129 0.125083
vt 0.514850 0.215875
vt 0.523118 0.281770
vt 0.532852 0.367977
vt 0.549765 0.471987
vt 0.550651 0.538751
vt 0.528731 0.638679
vt 0.524536 0.725363
vt 0.525733 0.803643
vt 0.632645 0.020941
vt 0.630188 0.114374
vt 0.621739 0.191993
vt 0.629205 0.253270
vt 0.625259 0.355662
vt 0.619401 0.472823
vt 0.618851 0.545030
vt 0.606107 0.643183
vt 0.611056 0.719687
vt 0.615933 0.804839
vt 0.720946 0.016505
vt 0.723749 0.104995
vt 0.725810 0.190106
vt 0.719683 0.271837
vt 0.718515 0.354289
vt 0.722415 0.440550
vt 0.690856 0.542721
vt 0.691285 0.608970
vt 0.693907 0.710106
vt 0.726992 0.811290
vt 0.811917 0.013476
vt 0.812735 0.102069
vt 0.826370 0.209917
vt 0.820862 0.274567
vt 0.821621 0.339189
vt 0.812353 0.445078
vt 0.804724 0.538701
vt 0.798899 0.633280
vt 0.788541 0.746170
vt 0.792484 0.812072
vt 0.901599 0.013423
vt 0.900926 0.103388
vt 0.886961 0.206588
vt 0.895401 0.276883
vt 0.913326 0.371579
vt 0.905416 0.459485
vt 0.902113 0.539951
vt 0.896409 0.637514
vt 0.895572 0.729780
vt 0.895693 0.815665
vt 0.993739 0.012089
vt 0.991289 0.104206
vt 0.991485 0.193544
vt 0.993999 0.280449
vt 0.999272 0.369302
vt 0.999615 0.459335
vt 0.994162 0.550714
vt 0.988495 0.640932
vt 0.985625 0.731297
vt 0.981751 0.820750
vn -0.1024 0.9895 0.1024
vn 0.0915 0.9916 -0.0915
vn -0.0915 0.9916 -0.0915
vn 0.0000 1.0000 0.0000
vn -0.3226 0.8899 -0.3226
vn -0.0823 0.7659 -0.6376
vn 0.3914 0.8328 -0.3914
vn -0.0526 0.9972 0.0526
vn -0.3914 0.8328 0.3914
vn -0.3914 0.8328 -0.3914
vn 0.2100 0.9549 -0.2100
vn 0.4027 0.9153 0.0000
vn 0.2100 0.9549 0.2100
vn -0.0915 0.9916 0.0915
vn 0.0000 0.7286 -0.6849
vn -0.2100 0.9549 -0.2100
vn -0.4027 0.9153 0.0000
vn -0.2100 0.9549 0.2100
vn -0.6260 0.7733 -0.1009
vn -0.3061 0.9015 -0.3061
vn 0.0627 0.7577 0.6496
vn 0.1357 0.9903 0.0281
vn 0.0406 0.7480 -0.6625
vn -0.6849 0.7286 0.0000
vn 0.0622 0.7575 0.6499
vn -0.0483 0.9977 -0.0483
vn -0.1009 0.7733 -0.6260
vn 0.3397 0.8771 0.3397
vn 0.6259 0.7796 0.0221
vn 0.3583 0.8621 -0.3583
vn 0.3914 0.8328 0.3914
vn -0.0622 0.7575 0.6499
vn -0.1922 0.9624 0.1922
vn -0.0805 0.6848 -0.7242
vn 0.5562 0.8062 0.2016
vn 0.7709 0.6035 0.2037
vn 0.4519 0.7691 -0.4519
vn -0.2016 0.8062 -0.5562
vn 0.0000 0.9153 0.4027
vn 0.0000 0.9153 -0.4027
vn 0.1395 0.7873 0.6006
vn -0.4151 0.8095 -0.4151
vn -0.8097 0.5868 0.0000
vn -0.5562 0.8062 -0.2016
vn 0.0000 0.7286 0.6849
vn 0.2706 0.9239 0.2706
vn 0.6006 0.7873 0.1395
vn 0.6849 0.7286 0.0000
vn -0.4248 0.7994 0.4248
vn -0.6612 0.7397 -0.1250
vn -0.4492 0.7723 0.4492
vn -0.7226 0.6870 -0.0767
vn -0.3393 0.8306 0.4414
vn -0.0454 0.9850 -0.1664
vn 0.0767 0.6870 0.7226
vn 0.2193 0.9507 -0.2193
vn 0.4858 0.8248 -0.2895
vn 0.4938 0.7157 -0.4938
vn -0.1024 0.9895 -0.1024
vn 0.6319 0.7696 -0.0916
vn 0.3144 0.8957 -0.3144
usemtl Material.001
s off
f 144/1/1 34/2/1 4/3/1 35/4/1
f 5/5/2 54/6/2 44/7/2 3/8/2
f 54/6/3 64/9/3 43/10/3 44/7/3
f 64/9/4 74/11/4 42/12/4 43/10/4
f 74/11/4 84/13/4 41/14/4 42/12/4
f 84/13/2 94/15/2 40/16/2 41/14/2
f 94/15/3 104/17/3 39/18/3 40/16/3
f 104/17/4 114/19/4 38/20/4 39/18/4
f 114/19/5 124/21/5 37/22/5 38/20/5
f 124/21/6 134/23/6 36/24/6 37/22/6
f 134/23/7 144/1/7 35/4/7 36/24/7
f 1/25/8 15/26/8 45/27/8 14/28/8
f 14/28/9 45/27/9 46/29/9 13/30/9
f 13/30/10 46/29/10 47/31/10 12/32/10
f 12/32/11 47/31/11 48/33/11 11/34/11
f 11/34/12 48/33/12 49/35/12 10/36/12
f 10/36/13 49/35/13 50/37/13 9/38/13
f 9/38/3 50/37/3 51/39/3 8/40/3
f 8/40/14 51/39/14 52/41/14 7/42/14
f 7/42/4 52/41/4 53/43/4 6/44/4
f 6/44/4 53/43/4 54/6/4 5/5/4
f 15/26/9 16/45/9 55/46/9 45/27/9
f 45/27/9 55/46/9 56/47/9 46/29/9
f 46/29/15 56/47/15 57/48/15 47/31/15
f 47/31/16 57/48/16 58/49/16 48/33/16
f 48/33/17 58/49/17 59/50/17 49/35/17
f 49/35/18 59/50/18 60/51/18 50/37/18
f 50/37/4 60/51/4 61/52/4 51/39/4
f 51/39/9 61/52/9 62/53/9 52/41/9
f 52/41/19 62/53/19 63/54/19 53/43/19
f 53/43/20 63/54/20 64/9/20 54/6/20
f 16/45/21 17/55/21 65/56/21 55/46/21
f 55/46/22 65/56/22 66/57/22 56/47/22
f 56/47/23 66/57/23 67/58/23 57/48/23
f 57/48/9 67/58/9 68/59/9 58/49/9
f 58/49/24 68/59/24 69/60/24 59/50/24
f 59/50/10 69/60/10 70/61/10 60/51/10
f 60/51/4 70/61/4 71/62/4 61/52/4
f 61/52/25 71/62/25 72/63/25 62/53/25
f 62/53/26 72/63/26 73/64/26 63/54/26
f 63/54/27 73/64/27 74/11/27 64/9/27
f 17/55/28 18/65/28 75/66/28 65/56/28
f 65/56/29 75/66/29 76/67/29 66/57/29
f 66/57/30 76/67/30 77/68/30 67/58/30
f 67/58/31 77/68/31 78/69/31 68/59/31
f 68/59/31 78/69/31 79/70/31 69/60/31
f 69/60/15 79/70/15 80/71/15 70/61/15
f 70/61/4 80/71/4 81/72/4 71/62/4
f 71/62/32 81/72/32 82/73/32 72/63/32
f 72/63/33 82/73/33 83/74/33 73/64/33
f 73/64/34 83/74/34 84/13/34 74/11/34
f 18/65/4 19/75/4 85/76/4 75/66/4
f 75/66/4 85/76/4 86/77/4 76/67/4
f 76/67/11 86/77/11 87/78/11 77/68/11
f 77/68/13 87/78/13 88/79/13 78/69/13
f 78/69/31 88/79/31 89/80/31 79/70/31
f 79/70/7 89/80/7 90/81/7 80/71/7
f 80/71/4 90/81/4 91/82/4 81/72/4
f 81/72/35 91/82/35 92/83/35 82/73/35
f 82/73/36 92/83/36 93/84/36 83/74/36
f 83/74/37 93/84/37 94/15/37 84/13/37
f 19/75/9 20/85/9 95/86/9 85/76/9
f 85/76/38 95/86/38 96/87/38 86/77/38
f 86/77/11 96/87/11 97/88/11 87/78/11
f 87/78/39 97/88/39 98/89/39 88/79/39
f 88/79/9 98/89/9 99/90/9 89/80/9
f 89/80/24 99/90/24 100/91/24 90/81/24
f 90/81/10 100/91/10 101/92/10 91/82/10
f 91/82/40 101/92/40 102/93/40 92/83/40
f 92/83/13 102/93/13 103/94/13 93/84/13
f 93/84/13 103/94/13 104/17/13 94/15/13
f 20/85/41 21/95/41 105/96/41 95/86/41
f 95/86/42 105/96/42 106/97/42 96/87/42
f 96/87/43 106/97/43 107/98/43 97/88/43
f 97/88/44 107/98/44 108/99/44 98/89/44
f 98/89/45 108/99/45 109/100/45 99/90/45
f 99/90/4 109/100/4 110/101/4 100/91/4
f 100/91/15 110/101/15 111/102/15 101/92/15
f 101/92/16 111/102/16 112/103/16 102/93/16
f 102/93/17 112/103/17 113/104/17 103/94/17
f 103/94/18 113/104/18 114/19/18 104/17/18
f 21/95/46 22/105/46 115/106/46 105/96/46
f 105/96/47 115/106/47 116/107/47 106/97/47
f 106/97/48 116/107/48 117/108/48 107/98/48
f 107/98/7 117/108/7 118/109/7 108/99/7
f 108/99/31 118/109/31 119/110/31 109/100/31
f 109/100/31 119/110/31 120/111/31 110/101/31
f 110/101/10 120/111/10 121/112/10 111/102/10
f 111/102/10 121/112/10 122/113/10 112/103/10
f 112/103/49 122/113/49 123/114/49 113/104/49
f 113/104/50 123/114/50 124/21/50 114/19/50
f 22/105/4 23/115/4 125/116/4 115/106/4
f 115/106/51 125/116/51 126/117/51 116/107/51
f 116/107/52 126/117/52 127/118/52 117/108/52
f 117/108/24 127/118/24 128/119/24 118/109/24
f 118/109/10 128/119/10 129/120/10 119/110/10
f 119/110/31 129/120/31 130/121/31 120/111/31
f 120/111/48 130/121/48 131/122/48 121/112/48
f 121/112/4 131/122/4 132/123/4 122/113/4
f 122/113/53 132/123/53 133/124/53 123/114/53
f 123/114/54 133/124/54 134/23/54 124/21/54
f 23/115/4 24/125/4 135/126/4 125/116/4
f 125/116/55 135/126/55 136/127/55 126/117/55
f 126/117/56 136/127/56 137/128/56 127/118/56
f 127/118/57 137/128/57 138/129/57 128/119/57
f 128/119/58 138/129/58 139/130/58 129/120/58
f 129/120/12 139/130/12 140/131/12 130/121/12
f 130/121/13 140/131/13 141/132/13 131/122/13
f 131/122/31 141/132/31 142/133/31 132/123/31
f 132/123/48 142/133/48 143/134/48 133/124/48
f 133/124/48 143/134/48 144/1/48 134/23/48
f 24/125/59 2/135/59 25/136/59 135/126/59
f 135/126/31 25/136/31 26/137/31 136/127/31
f 136/127/60 26/137/60 27/138/60 137/128/60
f 137/128/61 27/138/61 28/139/61 138/129/61
f 138/129/16 28/139/16 29/140/16 139/130/16
f 139/130/17 29/140/17 30/141/17 140/131/17
f 140/131/18 30/141/18 31/142/18 141/132/18
f 141/132/4 31/142/4 32/143/4 142/133/4
f 142/133/4 32/143/4 33/144/4 143/134/4
f 143/134/4 33/144/4 34/2/4 144/1/4
