# Blender v2.79 (sub 0) OBJ File: ''
# www.blender.org
mtllib texturafoto.mtl
o Cube_Cube.001
v -1.000000 -0.197668 1.000000
v -1.000000 0.255847 1.000000
v -1.000000 -0.197668 -1.000000
v -1.000000 0.197668 -1.000000
v 1.000000 -0.197668 1.000000
v 1.000000 0.197668 1.000000
v 1.000000 -0.197668 -1.000000
v 1.000000 0.197668 -1.000000
v -1.000000 0.197668 0.818182
v -1.000000 0.197668 0.636364
v -1.000000 0.255847 0.454545
v -1.000000 0.197668 0.272727
v -1.000000 0.197668 0.090909
v -1.000000 0.255847 -0.090909
v -1.000000 0.197668 -0.272727
v -1.000000 0.258622 -0.454545
v -1.000000 0.197668 -0.636364
v -1.000000 0.197668 -0.818182
v -0.818182 0.197668 -1.000000
v -0.636364 0.258622 -1.000000
v -0.454545 0.197668 -1.000000
v -0.272727 0.197668 -1.000000
v -0.090909 0.197668 -1.000000
v 0.090909 0.255847 -1.000000
v 0.272727 0.197668 -1.000000
v 0.454545 0.255847 -1.000000
v 0.636364 0.255847 -1.000000
v 0.818182 0.197668 -1.000000
v 1.000000 0.258622 -0.818182
v 1.000000 0.197668 -0.636364
v 1.000000 0.197668 -0.454545
v 1.000000 0.197668 -0.272727
v 1.000000 0.258622 -0.090909
v 1.000000 0.197668 0.090909
v 1.000000 0.255847 0.272727
v 1.000000 0.197668 0.454545
v 1.000000 0.255847 0.636364
v 1.000000 0.197668 0.818182
v 0.818182 0.197668 1.000000
v 0.636364 0.197668 1.000000
v 0.454545 0.197668 1.000000
v 0.272727 0.255847 1.000000
v 0.090909 0.258622 1.000000
v -0.090909 0.258622 1.000000
v -0.272727 0.255847 1.000000
v -0.454545 0.197668 1.000000
v -0.636364 0.197668 1.000000
v -0.818182 0.197668 1.000000
v 0.818182 0.197668 -0.818182
v 0.818182 0.197668 -0.636364
v 0.818182 0.197668 -0.454545
v 0.818182 0.197668 -0.272727
v 0.818182 0.197668 -0.090909
v 0.818182 0.127722 0.090909
v 0.818182 0.197668 0.272727
v 0.818182 0.258622 0.454545
v 0.818182 0.258622 0.636364
v 0.818182 0.127722 0.818182
v 0.636364 0.258622 -0.818182
v 0.636364 0.197668 -0.636364
v 0.636364 0.127722 -0.454545
v 0.636364 0.197668 -0.272727
v 0.636364 0.197668 -0.090909
v 0.636364 0.197668 0.090909
v 0.636364 0.197668 0.272727
v 0.636364 0.127722 0.454545
v 0.636364 0.197668 0.636364
v 0.636364 0.258622 0.818182
v 0.454545 0.197668 -0.818182
v 0.454545 0.197668 -0.636364
v 0.454545 0.197668 -0.454545
v 0.454545 0.258622 -0.272727
v 0.454545 0.197668 -0.090909
v 0.454545 0.197668 0.090909
v 0.454545 0.197668 0.272727
v 0.454545 0.197668 0.454545
v 0.454545 0.185901 0.636364
v 0.454545 0.197668 0.818182
v 0.272727 0.197668 -0.818182
v 0.272727 0.197668 -0.636364
v 0.272727 0.197668 -0.454545
v 0.272727 0.197668 -0.272727
v 0.272727 0.197668 -0.090909
v 0.272727 0.197668 0.090909
v 0.272727 0.258622 0.272727
v 0.272727 0.197668 0.454545
v 0.272727 0.258622 0.636364
v 0.272727 0.255847 0.818182
v 0.090909 0.258622 -0.818182
v 0.090909 0.197668 -0.636364
v 0.090909 0.197668 -0.454545
v 0.090909 0.197668 -0.272727
v 0.090909 0.197668 -0.090909
v 0.090909 0.127722 0.090909
v 0.090909 0.197668 0.272727
v 0.090909 0.197668 0.454545
v 0.090909 0.197668 0.636364
v 0.090909 0.197668 0.818182
v -0.090909 0.258622 -0.818182
v -0.090909 0.197668 -0.636364
v -0.090909 0.127722 -0.454545
v -0.090909 0.197668 -0.272727
v -0.090909 0.197668 -0.090909
v -0.090909 0.197668 0.090909
v -0.090909 0.197668 0.272727
v -0.090909 0.197668 0.454545
v -0.090909 0.197668 0.636364
v -0.090909 0.197668 0.818182
v -0.272727 0.197668 -0.818182
v -0.272727 0.197668 -0.636364
v -0.272727 0.197668 -0.454545
v -0.272727 0.197668 -0.272727
v -0.272727 0.197668 -0.090909
v -0.272727 0.197668 0.090909
v -0.272727 0.127722 0.272727
v -0.272727 0.197668 0.454545
v -0.272727 0.127722 0.636364
v -0.272727 0.197668 0.818182
v -0.454545 0.197668 -0.818182
v -0.454545 0.197668 -0.636364
v -0.454545 0.197668 -0.454545
v -0.454545 0.127722 -0.272727
v -0.454545 0.197668 -0.090909
v -0.454545 0.197668 0.090909
v -0.454545 0.197668 0.272727
v -0.454545 0.127722 0.454545
v -0.454545 0.197668 0.636364
v -0.454545 0.197668 0.818182
v -0.636364 0.197668 -0.818182
v -0.636364 0.197668 -0.636364
v -0.636364 0.197668 -0.454545
v -0.636364 0.197668 -0.272727
v -0.636364 0.197668 -0.090909
v -0.636364 0.197668 0.090909
v -0.636364 0.127722 0.272727
v -0.636364 0.197668 0.454545
v -0.636364 0.255847 0.636364
v -0.636364 0.197668 0.818182
v -0.818182 0.197668 -0.818182
v -0.818182 0.197668 -0.636364
v -0.818182 0.197668 -0.454545
v -0.818182 0.197668 -0.272727
v -0.818182 0.197668 -0.090909
v -0.818182 0.197668 0.090909
v -0.818182 0.197668 0.272727
v -0.818182 0.197668 0.454545
v -0.818182 0.197668 0.636364
v -0.818182 0.258622 0.818182
vn -1.0000 -0.0000 0.0000
vn 0.0000 0.0000 -1.0000
vn 1.0000 -0.0000 0.0000
vn 0.0000 0.0000 1.0000
vn 0.0000 -1.0000 0.0000
vn -0.0076 0.9999 0.0076
vn -0.1856 0.9649 -0.1856
vn 0.3386 0.9406 -0.0233
vn -0.1631 0.9730 0.1631
vn 0.3048 0.9524 0.0000
vn -0.1486 0.9753 -0.1635
vn 0.0000 0.9481 -0.3179
vn -0.0073 0.9503 -0.3113
vn -0.1560 0.9753 -0.1560
vn 0.0000 1.0000 0.0000
vn 0.1631 0.9730 0.1631
vn -0.1631 0.9730 -0.1631
vn -0.3208 0.8912 0.3208
vn -0.3154 0.8950 -0.3154
vn 0.0076 0.9999 -0.0076
vn 0.1705 0.9730 -0.1557
vn -0.1617 0.8755 0.4553
vn 0.3113 0.9503 -0.0073
vn -0.1856 0.9649 0.1856
vn 0.1856 0.9649 0.1856
vn 0.1856 0.9649 -0.1856
vn -0.3386 0.9406 0.0233
vn -0.4600 0.8719 -0.1677
vn -0.1635 0.9753 0.1486
vn 0.3208 0.8912 -0.3208
vn 0.1560 0.9753 -0.1560
vn -0.1924 0.9623 -0.1924
vn -0.1560 0.9753 0.1560
vn 0.1631 0.9730 -0.1631
vn 0.1944 0.9721 -0.1315
vn -0.3208 0.8912 -0.3208
vn -0.3113 0.9503 0.0073
vn -0.1557 0.9730 -0.1705
vn 0.0000 0.9481 0.3179
vn 0.3154 0.8950 -0.3154
vn 0.1560 0.9753 0.1560
usemtl Material.001
s off
f 1//1 2//1 9//1 10//1 11//1 12//1 13//1 14//1 15//1 16//1 17//1 18//1 4//1 3//1
f 3//2 4//2 19//2 20//2 21//2 22//2 23//2 24//2 25//2 26//2 27//2 28//2 8//2 7//2
f 7//3 8//3 29//3 30//3 31//3 32//3 33//3 34//3 35//3 36//3 37//3 38//3 6//3 5//3
f 5//4 6//4 39//4 40//4 41//4 42//4 43//4 44//4 45//4 46//4 47//4 48//4 2//4 1//4
f 3//5 7//5 5//5 1//5
f 148//6 9//6 2//6 48//6
f 38//7 58//7 39//7 6//7
f 58//8 68//8 40//8 39//8
f 68//9 78//9 41//9 40//9
f 78//10 88//10 42//10 41//10
f 88//11 98//11 43//11 42//11
f 98//12 108//12 44//12 43//12
f 108//13 118//13 45//13 44//13
f 118//14 128//14 46//14 45//14
f 128//15 138//15 47//15 46//15
f 138//16 148//16 48//16 47//16
f 8//17 28//17 49//17 29//17
f 29//9 49//9 50//9 30//9
f 30//15 50//15 51//15 31//15
f 31//15 51//15 52//15 32//15
f 32//17 52//17 53//17 33//17
f 33//18 53//18 54//18 34//18
f 34//19 54//19 55//19 35//19
f 35//20 55//20 56//20 36//20
f 36//21 56//21 57//21 37//21
f 37//22 57//22 58//22 38//22
f 28//23 27//23 59//23 49//23
f 49//16 59//16 60//16 50//16
f 50//24 60//24 61//24 51//24
f 51//7 61//7 62//7 52//7
f 52//15 62//15 63//15 53//15
f 53//25 63//25 64//25 54//25
f 54//26 64//26 65//26 55//26
f 55//27 65//27 66//27 56//27
f 56//28 66//28 67//28 57//28
f 57//25 67//25 68//25 58//25
f 27//29 26//29 69//29 59//29
f 59//9 69//9 70//9 60//9
f 60//25 70//25 71//25 61//25
f 61//30 71//30 72//30 62//30
f 62//16 72//16 73//16 63//16
f 63//15 73//15 74//15 64//15
f 64//15 74//15 75//15 65//15
f 65//25 75//25 76//25 66//25
f 66//31 76//31 77//31 67//31
f 67//32 77//32 78//32 68//32
f 26//33 25//33 79//33 69//33
f 69//15 79//15 80//15 70//15
f 70//15 80//15 81//15 71//15
f 71//17 81//17 82//17 72//17
f 72//9 82//9 83//9 73//9
f 73//15 83//15 84//15 74//15
f 74//34 84//34 85//34 75//34
f 75//16 85//16 86//16 76//16
f 76//35 86//35 87//35 77//35
f 77//8 87//8 88//8 78//8
f 25//23 24//23 89//23 79//23
f 79//16 89//16 90//16 80//16
f 80//15 90//15 91//15 81//15
f 81//15 91//15 92//15 82//15
f 82//15 92//15 93//15 83//15
f 83//24 93//24 94//24 84//24
f 84//36 94//36 95//36 85//36
f 85//9 95//9 96//9 86//9
f 86//17 96//17 97//17 87//17
f 87//37 97//37 98//37 88//37
f 24//38 23//38 99//38 89//38
f 89//39 99//39 100//39 90//39
f 90//24 100//24 101//24 91//24
f 91//7 101//7 102//7 92//7
f 92//15 102//15 103//15 93//15
f 93//25 103//25 104//25 94//25
f 94//26 104//26 105//26 95//26
f 95//15 105//15 106//15 96//15
f 96//15 106//15 107//15 97//15
f 97//15 107//15 108//15 98//15
f 23//17 22//17 109//17 99//17
f 99//9 109//9 110//9 100//9
f 100//25 110//25 111//25 101//25
f 101//26 111//26 112//26 102//26
f 102//15 112//15 113//15 103//15
f 103//15 113//15 114//15 104//15
f 104//24 114//24 115//24 105//24
f 105//7 115//7 116//7 106//7
f 106//24 116//24 117//24 107//24
f 107//7 117//7 118//7 108//7
f 22//15 21//15 119//15 109//15
f 109//15 119//15 120//15 110//15
f 110//15 120//15 121//15 111//15
f 111//24 121//24 122//24 112//24
f 112//7 122//7 123//7 113//7
f 113//15 123//15 124//15 114//15
f 114//25 124//25 125//25 115//25
f 115//15 125//15 126//15 116//15
f 116//15 126//15 127//15 117//15
f 117//26 127//26 128//26 118//26
f 21//16 20//16 129//16 119//16
f 119//15 129//15 130//15 120//15
f 120//15 130//15 131//15 121//15
f 121//25 131//25 132//25 122//25
f 122//26 132//26 133//26 123//26
f 123//15 133//15 134//15 124//15
f 124//24 134//24 135//24 125//24
f 125//15 135//15 136//15 126//15
f 126//40 136//40 137//40 127//40
f 127//41 137//41 138//41 128//41
f 20//9 19//9 139//9 129//9
f 129//15 139//15 140//15 130//15
f 130//15 140//15 141//15 131//15
f 131//15 141//15 142//15 132//15
f 132//15 142//15 143//15 133//15
f 133//15 143//15 144//15 134//15
f 134//25 144//25 145//25 135//25
f 135//26 145//26 146//26 136//26
f 136//14 146//14 147//14 137//14
f 137//20 147//20 148//20 138//20
f 19//15 4//15 18//15 139//15
f 139//15 18//15 17//15 140//15
f 140//34 17//34 16//34 141//34
f 141//16 16//16 15//16 142//16
f 142//31 15//31 14//31 143//31
f 143//41 14//41 13//41 144//41
f 144//15 13//15 12//15 145//15
f 145//31 12//31 11//31 146//31
f 146//41 11//41 10//41 147//41
f 147//17 10//17 9//17 148//17
